# xmcd
#
# Track frame offsets: 
#        150
#        13130
#        22552
#        34310
#        48752
#        59820
#        74750
#        85485
#        96960
#        109032
#        119822
#        132775
#        146800
#        157420
#        171340
#        181932
#
# Disc length: 2612 seconds
#
# Revision: 3
# Processed by: cddbd v1.5.2PL0 Copyright (c) Steve Scherf et al.
# Submitted via: ExactAudioCopyFreeDBPlugin 1.0
#
DISCID=f00a3210
DTITLE=Various Artist - Country Favourites
DYEAR=1996
DGENRE=Country
TTITLE0=Kenny Rogers - Ruby
TTITLE1=Frankie Lane - Raw Hide
TTITLE2=Patsy Cline - Walking After Midnight
TTITLE3=Freddy Fender - Wasted Days and Wasted Nights
TTITLE4=Guy Mitchell - Singin' The Blues
TTITLE5=Jeannie C. Riley - Harper Valley
TTITLE6=Conway Twitty - It's Only Make Believe
TTITLE7=Dave Dudley - Six Days On The Road
TTITLE8=Ricky Skaggs - Are You Proud Of America
TTITLE9=Jerry Wallace - Primrose Lane
TTITLE10=Faron Young - Four In The Morning
TTITLE11=Barbara Fairchild - The Teddy Bear Song
TTITLE12=Barry Sadler - Ballad Of The Green Berets
TTITLE13=Willie Nelson - Home Is Where You're Happy
TTITLE14=Ferlin Husky - Wings Of A Dove
TTITLE15=George Jones - A Good Year For The Roses
EXTD=
EXTT0=
EXTT1=
EXTT2=
EXTT3=
EXTT4=
EXTT5=
EXTT6=
EXTT7=
EXTT8=
EXTT9=
EXTT10=
EXTT11=
EXTT12=
EXTT13=
EXTT14=
EXTT15=
PLAYORDER=
